<svg width="114" height="24" viewBox="0 0 114 24" fill="none" xmlns="http://www.w3.org/2000/svg">
<path d="M8.0625 14.4609C8.0625 14.2266 7.99219 14.0234 7.85156 13.8516C7.71875 13.6797 7.46875 13.5195 7.10156 13.3711C6.73438 13.2227 6.20312 13.0742 5.50781 12.9258C4.65625 12.7383 3.88672 12.4844 3.19922 12.1641C2.51953 11.8438 1.98438 11.4297 1.59375 10.9219C1.20312 10.4062 1.00781 9.78516 1.00781 9.05859C1.00781 8.34766 1.21094 7.69141 1.61719 7.08984C2.02344 6.48828 2.60547 6.00391 3.36328 5.63672C4.12891 5.26953 5.04297 5.08594 6.10547 5.08594C7.21484 5.08594 8.17188 5.26172 8.97656 5.61328C9.78125 5.96484 10.3984 6.44922 10.8281 7.06641C11.2578 7.68359 11.4727 8.39062 11.4727 9.1875H7.93359C7.93359 8.71094 7.78516 8.32422 7.48828 8.02734C7.19922 7.72266 6.73438 7.57031 6.09375 7.57031C5.75 7.57031 5.44922 7.62891 5.19141 7.74609C4.93359 7.86328 4.73438 8.01953 4.59375 8.21484C4.46094 8.40234 4.39453 8.625 4.39453 8.88281C4.39453 9.11719 4.46875 9.32422 4.61719 9.50391C4.76562 9.68359 5.00781 9.83984 5.34375 9.97266C5.67969 10.1055 6.12891 10.2227 6.69141 10.3242C7.58984 10.4961 8.40234 10.7344 9.12891 11.0391C9.85547 11.3359 10.4336 11.7461 10.8633 12.2695C11.293 12.7852 11.5078 13.4727 11.5078 14.332C11.5078 15.082 11.2852 15.7539 10.8398 16.3477C10.4023 16.9336 9.77734 17.3945 8.96484 17.7305C8.16016 18.0664 7.21094 18.2344 6.11719 18.2344C4.92188 18.2344 3.91406 18.0195 3.09375 17.5898C2.27344 17.1602 1.65234 16.6172 1.23047 15.9609C0.808594 15.2969 0.597656 14.6211 0.597656 13.9336H3.94922C3.97266 14.3555 4.08594 14.6992 4.28906 14.9648C4.5 15.2305 4.76953 15.4258 5.09766 15.5508C5.43359 15.6758 5.80078 15.7383 6.19922 15.7383C6.60547 15.7383 6.94531 15.6875 7.21875 15.5859C7.5 15.4766 7.71094 15.3281 7.85156 15.1406C7.99219 14.9453 8.0625 14.7188 8.0625 14.4609ZM17.3438 18H13.793V5.32031H17.3438V18ZM13.582 2.05078C13.582 1.51953 13.7617 1.08594 14.1211 0.75C14.4805 0.40625 14.9609 0.234375 15.5625 0.234375C16.1641 0.234375 16.6406 0.40625 16.9922 0.75C17.3516 1.08594 17.5312 1.51953 17.5312 2.05078C17.5312 2.57422 17.3516 3.00781 16.9922 3.35156C16.6406 3.69531 16.1641 3.86719 15.5625 3.86719C14.9609 3.86719 14.4805 3.69531 14.1211 3.35156C13.7617 3.00781 13.582 2.57422 13.582 2.05078ZM23.6016 18H20.0625V5.32031H23.3906L23.6016 7.96875V18ZM22.1367 11.2852C22.1367 10.082 22.3242 9.01562 22.6992 8.08594C23.0742 7.15625 23.6289 6.42578 24.3633 5.89453C25.1055 5.35547 26.0234 5.08594 27.1172 5.08594C28.2422 5.08594 29.1602 5.43359 29.8711 6.12891C30.582 6.81641 30.9375 7.95312 30.9375 9.53906V18H27.3984V9.97266C27.3984 9.43359 27.3242 9.01953 27.1758 8.73047C27.0352 8.43359 26.8281 8.23047 26.5547 8.12109C26.2812 8.01172 25.9531 7.95703 25.5703 7.95703C25.1562 7.95703 24.793 8.03906 24.4805 8.20312C24.168 8.35938 23.9102 8.58594 23.707 8.88281C23.5039 9.17969 23.3516 9.53125 23.25 9.9375C23.1562 10.3359 23.1094 10.7695 23.1094 11.2383L22.1367 11.2852ZM29.3555 11.1445C29.3477 9.99609 29.5234 8.96484 29.8828 8.05078C30.25 7.13672 30.7969 6.41406 31.5234 5.88281C32.25 5.35156 33.1523 5.08594 34.2305 5.08594C35.043 5.08594 35.7539 5.24219 36.3633 5.55469C36.9727 5.86719 37.4453 6.37891 37.7812 7.08984C38.1172 7.80078 38.2852 8.75391 38.2852 9.94922V18H34.7227V9.9375C34.7227 9.39062 34.6484 8.97656 34.5 8.69531C34.3594 8.41406 34.1523 8.22266 33.8789 8.12109C33.6133 8.01172 33.293 7.95703 32.918 7.95703C32.5273 7.95703 32.1875 8.03125 31.8984 8.17969C31.6172 8.32812 31.3789 8.54297 31.1836 8.82422C30.9961 9.09766 30.8516 9.42188 30.75 9.79688C30.6562 10.1641 30.6094 10.5664 30.6094 11.0039L29.3555 11.1445ZM44.3438 22.875H40.8047V5.32031H44.0859L44.3438 7.75781V22.875ZM52.3125 11.7656C52.3125 12.9922 52.1211 14.0938 51.7383 15.0703C51.3633 16.0469 50.8086 16.8203 50.0742 17.3906C49.3477 17.9531 48.4492 18.2344 47.3789 18.2344C46.3398 18.2344 45.4844 17.9531 44.8125 17.3906C44.1484 16.8203 43.6328 16.0547 43.2656 15.0938C42.8984 14.1328 42.6328 13.0703 42.4688 11.9062V11.543C42.625 10.3008 42.8867 9.19531 43.2539 8.22656C43.6289 7.25 44.1484 6.48438 44.8125 5.92969C45.4844 5.36719 46.3359 5.08594 47.3672 5.08594C48.4375 5.08594 49.3398 5.35547 50.0742 5.89453C50.8086 6.42578 51.3633 7.17578 51.7383 8.14453C52.1211 9.10547 52.3125 10.2305 52.3125 11.5195V11.7656ZM48.7734 11.5195C48.7734 10.832 48.6953 10.2227 48.5391 9.69141C48.3906 9.15234 48.1445 8.73047 47.8008 8.42578C47.457 8.11328 47 7.95703 46.4297 7.95703C45.9922 7.95703 45.6172 8.02734 45.3047 8.16797C45 8.30078 44.7461 8.5 44.543 8.76562C44.3477 9.03125 44.1992 9.35938 44.0977 9.75C44.0039 10.1328 43.9492 10.5781 43.9336 11.0859V12.375C43.9648 12.9531 44.0625 13.4688 44.2266 13.9219C44.3984 14.375 44.6641 14.7344 45.0234 15C45.3828 15.2578 45.8594 15.3867 46.4531 15.3867C47.0312 15.3867 47.4883 15.2227 47.8242 14.8945C48.1602 14.5664 48.4023 14.1289 48.5508 13.582C48.6992 13.0273 48.7734 12.4219 48.7734 11.7656V11.5195ZM58.0547 18H54.5039V0H58.0547V18ZM66.6914 18.2344C65.3555 18.2344 64.2109 17.957 63.2578 17.4023C62.3125 16.8477 61.5859 16.1055 61.0781 15.1758C60.5781 14.2461 60.3281 13.2188 60.3281 12.0938V11.6367C60.3281 10.3711 60.5664 9.24609 61.043 8.26172C61.5273 7.26953 62.2148 6.49219 63.1055 5.92969C63.9961 5.36719 65.0586 5.08594 66.293 5.08594C67.5195 5.08594 68.5508 5.34375 69.3867 5.85938C70.2227 6.375 70.8555 7.10156 71.2852 8.03906C71.7148 8.96875 71.9297 10.0625 71.9297 11.3203V12.8203H61.8164V10.4414H68.4492V10.1602C68.4492 9.72266 68.3711 9.33594 68.2148 9C68.0586 8.66406 67.8203 8.40234 67.5 8.21484C67.1875 8.02734 66.7773 7.93359 66.2695 7.93359C65.6914 7.93359 65.2266 8.09766 64.875 8.42578C64.5234 8.75391 64.2656 9.19531 64.1016 9.75C63.9453 10.3047 63.8672 10.9336 63.8672 11.6367V12.0938C63.8672 12.7422 63.9883 13.3125 64.2305 13.8047C64.4727 14.2969 64.8203 14.6836 65.2734 14.9648C65.7266 15.2383 66.2734 15.375 66.9141 15.375C67.5156 15.375 68.0781 15.2656 68.6016 15.0469C69.125 14.8203 69.5703 14.4688 69.9375 13.9922L71.6484 15.9492C71.25 16.5195 70.6328 17.043 69.7969 17.5195C68.9688 17.9961 67.9336 18.2344 66.6914 18.2344ZM79.6055 10.0195H76.1016L76.4062 8.20312L79.418 8.22656C79.9727 8.21875 80.4609 8.08984 80.8828 7.83984C81.3125 7.58203 81.6562 7.23828 81.9141 6.80859C82.1797 6.37891 82.3438 5.89453 82.4062 5.35547C82.4688 4.87109 82.4531 4.44141 82.3594 4.06641C82.2656 3.68359 82.0742 3.38281 81.7852 3.16406C81.5039 2.9375 81.1016 2.81641 80.5781 2.80078L77.8242 2.78906L75.1758 18H73.0781L76.0312 0.9375L80.625 0.949219C81.3125 0.964844 81.9102 1.07812 82.418 1.28906C82.9336 1.5 83.3555 1.79688 83.6836 2.17969C84.0195 2.5625 84.2578 3.02344 84.3984 3.5625C84.5469 4.10156 84.5938 4.71094 84.5391 5.39062C84.4766 6.16406 84.25 6.83594 83.8594 7.40625C83.4688 7.97656 82.9648 8.4375 82.3477 8.78906C81.7305 9.14062 81.0586 9.37109 80.332 9.48047L79.6055 10.0195ZM78.1523 18H73.7812L75.3281 16.1602L78.2227 16.1836C78.8477 16.1758 79.3828 16.0312 79.8281 15.75C80.2812 15.4609 80.6406 15.0781 80.9062 14.6016C81.1797 14.125 81.3516 13.5898 81.4219 12.9961C81.4766 12.5117 81.4688 12.0508 81.3984 11.6133C81.3281 11.168 81.1523 10.8008 80.8711 10.5117C80.5898 10.2227 80.168 10.0625 79.6055 10.0312L76.7695 10.0195L77.1211 8.20312L80.6367 8.21484L81 8.87109C81.6641 8.99609 82.1875 9.26953 82.5703 9.69141C82.9531 10.1055 83.2148 10.6055 83.3555 11.1914C83.5039 11.7773 83.5508 12.375 83.4961 12.9844C83.418 13.9922 83.1484 14.875 82.6875 15.6328C82.2266 16.3906 81.6094 16.9805 80.8359 17.4023C80.0625 17.8164 79.168 18.0156 78.1523 18ZM90.8086 0L87.6797 18H85.6641L88.793 0H90.8086ZM91.4531 12.2695L91.6055 11.0742C91.707 10.3164 91.8945 9.57812 92.168 8.85938C92.4492 8.14062 92.8203 7.49219 93.2812 6.91406C93.7422 6.33594 94.2969 5.87891 94.9453 5.54297C95.6016 5.20703 96.3594 5.05469 97.2188 5.08594C98.0312 5.10938 98.707 5.30078 99.2461 5.66016C99.7852 6.01172 100.203 6.47656 100.5 7.05469C100.805 7.63281 101.004 8.26953 101.098 8.96484C101.191 9.66016 101.203 10.3594 101.133 11.0625L100.98 12.2695C100.879 13.0195 100.688 13.7578 100.406 14.4844C100.133 15.2031 99.7617 15.8516 99.293 16.4297C98.832 17 98.2734 17.4531 97.6172 17.7891C96.9688 18.1172 96.2188 18.2656 95.3672 18.2344C94.5469 18.2188 93.8672 18.0312 93.3281 17.6719C92.7969 17.3125 92.3789 16.8438 92.0742 16.2656C91.7773 15.6875 91.582 15.0508 91.4883 14.3555C91.3945 13.6602 91.3828 12.9648 91.4531 12.2695ZM93.6328 11.0625L93.4805 12.293C93.4414 12.6836 93.4258 13.1172 93.4336 13.5938C93.4414 14.0625 93.5078 14.5117 93.6328 14.9414C93.7578 15.3711 93.9648 15.7305 94.2539 16.0195C94.5508 16.3008 94.9609 16.4531 95.4844 16.4766C96.0781 16.5078 96.5781 16.3984 96.9844 16.1484C97.3984 15.8984 97.7383 15.5664 98.0039 15.1523C98.2773 14.7305 98.4883 14.2695 98.6367 13.7695C98.7852 13.2617 98.8906 12.7617 98.9531 12.2695L99.1055 11.0508C99.1445 10.6602 99.1602 10.2305 99.1523 9.76172C99.1445 9.29297 99.0781 8.84375 98.9531 8.41406C98.8281 7.97656 98.6172 7.61328 98.3203 7.32422C98.0312 7.03516 97.6211 6.87891 97.0898 6.85547C96.5352 6.83203 96.0508 6.94922 95.6367 7.20703C95.2305 7.45703 94.8906 7.79688 94.6172 8.22656C94.3438 8.65625 94.125 9.12109 93.9609 9.62109C93.8047 10.1211 93.6953 10.6016 93.6328 11.0625ZM111.398 5.32031H113.227L111.059 18.1055C110.934 19.043 110.66 19.8906 110.238 20.6484C109.816 21.4062 109.246 21.9961 108.527 22.418C107.809 22.8477 106.941 23.0469 105.926 23.0156C105.48 23.0078 105.035 22.9336 104.59 22.793C104.152 22.6602 103.734 22.4727 103.336 22.2305C102.938 21.9961 102.594 21.7188 102.305 21.3984L103.254 19.9453C103.59 20.3281 103.973 20.6328 104.402 20.8594C104.84 21.0938 105.32 21.2188 105.844 21.2344C106.477 21.2578 107.012 21.1406 107.449 20.8828C107.895 20.625 108.246 20.2617 108.504 19.793C108.762 19.332 108.934 18.8086 109.02 18.2227L110.742 8.00391L111.398 5.32031ZM103.172 12.2695L103.324 11.1094C103.41 10.3984 103.559 9.68359 103.77 8.96484C103.988 8.24609 104.285 7.58984 104.66 6.99609C105.043 6.39453 105.527 5.91797 106.113 5.56641C106.707 5.21484 107.426 5.05469 108.27 5.08594C109.004 5.10938 109.586 5.3125 110.016 5.69531C110.453 6.07812 110.777 6.56641 110.988 7.16016C111.199 7.75391 111.324 8.37891 111.363 9.03516C111.41 9.69141 111.41 10.3086 111.363 10.8867L111.152 12.4688C111.051 13.0938 110.887 13.75 110.66 14.4375C110.441 15.1172 110.148 15.75 109.781 16.3359C109.414 16.9219 108.953 17.3945 108.398 17.7539C107.852 18.1055 107.195 18.2695 106.43 18.2461C105.633 18.2227 105 18.0195 104.531 17.6367C104.07 17.2539 103.727 16.7617 103.5 16.1602C103.281 15.5586 103.152 14.918 103.113 14.2383C103.082 13.5508 103.102 12.8945 103.172 12.2695ZM105.328 11.0859L105.199 12.2812C105.152 12.6875 105.121 13.125 105.105 13.5938C105.098 14.0625 105.141 14.5078 105.234 14.9297C105.336 15.3516 105.527 15.7031 105.809 15.9844C106.098 16.2578 106.52 16.4023 107.074 16.418C107.629 16.4336 108.125 16.2891 108.562 15.9844C109.008 15.6797 109.379 15.2891 109.676 14.8125C109.973 14.3359 110.191 13.8516 110.332 13.3594L110.859 10.0078C110.875 9.66406 110.84 9.31641 110.754 8.96484C110.676 8.60547 110.547 8.27344 110.367 7.96875C110.188 7.66406 109.957 7.41797 109.676 7.23047C109.395 7.03516 109.062 6.92578 108.68 6.90234C108.086 6.87109 107.586 6.98047 107.18 7.23047C106.781 7.47266 106.457 7.80469 106.207 8.22656C105.957 8.64062 105.762 9.10156 105.621 9.60938C105.488 10.1094 105.391 10.6016 105.328 11.0859Z" fill="#282828"/>
</svg>
